<mxfile host="app.diagrams.net" modified="2023-06-11T03:30:15.243Z" agent="Mozilla/5.0 (Macintosh; Intel Mac OS X 10_15_7) AppleWebKit/537.36 (KHTML, like Gecko) Chrome/114.0.0.0 Safari/537.36" version="21.3.2" etag="s52RHrOdsr1Hlj5gceQd" type="github">
  <diagram name="第 1 页" id="4SoiW52vBTYDnKEjXnNN">
    <mxGraphModel>
      <root>
        <mxCell id="0" />
        <mxCell id="1" parent="0" />
      </root>
    </mxGraphModel>
  </diagram>
</mxfile>
